<svg width="1500" height="600" viewBox="0 0 1500 600" fill="none" xmlns="http://www.w3.org/2000/svg">
<g clip-path="url(#clip0_428_75)">
<rect width="1500" height="600" fill="white"/>
<rect y="-3" width="1500" height="603" fill="#222222"/>
<path d="M1088.56 143.256L1088.98 144.499C1089.62 146.394 1089.62 146.395 1089.62 146.395L1089.61 146.398L1089.59 146.406L1089.49 146.437L1089.39 146.469C1089.32 146.492 1089.24 146.52 1089.14 146.553C1088.83 146.653 1088.36 146.8 1087.76 146.987C1086.55 147.359 1084.75 147.892 1082.42 148.534C1077.75 149.819 1070.91 151.546 1062.21 153.324C1044.8 156.878 1019.91 160.636 989.958 161.464C930.045 163.12 849.802 153.056 768.563 106.153C714.575 74.983 674.166 35.637 644.273 -3H649.344C678.775 34.5029 718.236 72.4779 770.563 102.689C851.005 149.132 930.471 159.107 989.847 157.466C1019.53 156.645 1044.19 152.921 1061.41 149.404C1070.02 147.646 1076.77 145.941 1081.36 144.678C1083.65 144.046 1085.41 143.525 1086.58 143.163C1087.17 142.982 1087.61 142.841 1087.91 142.746L1088.08 142.689L1088.24 142.639L1088.32 142.612L1088.34 142.606L1088.34 142.605C1088.34 142.605 1088.34 142.605 1088.56 143.256Z" fill="white" fill-opacity="0.2"/>
<path d="M1500 11.512C1491.38 14.1612 1482.69 17.1365 1473.95 20.465C1386.29 53.8525 1327.82 109.727 1291.28 157.234C1273 180.988 1260.21 202.66 1251.97 218.404C1247.86 226.276 1244.88 232.668 1242.93 237.1C1241.95 239.316 1241.23 241.042 1240.76 242.218C1240.52 242.806 1240.34 243.257 1240.22 243.562C1240.16 243.715 1240.12 243.832 1240.09 243.911L1240.04 244.026L1240.04 244.033C1240.04 244.033 1240.04 244.034 1240.05 244.037C1240.07 244.045 1240.13 244.069 1240.34 244.148C1240.59 244.243 1241.06 244.417 1241.91 244.737L1243.14 245.196C1243.79 245.437 1243.79 245.437 1243.79 245.437L1243.79 245.433L1243.79 245.415L1243.82 245.336C1243.85 245.265 1243.89 245.157 1243.95 245.013C1244.06 244.724 1244.23 244.291 1244.46 243.72C1244.93 242.579 1245.63 240.89 1246.59 238.712C1248.51 234.355 1251.45 228.044 1255.52 220.257C1263.66 204.683 1276.34 183.213 1294.45 159.673C1330.66 112.591 1388.57 57.2633 1475.37 24.2031C1483.63 21.0576 1491.85 18.2305 1500 15.6985V11.512Z" fill="white" fill-opacity="0.2"/>
<path d="M733.615 600C722.125 566.1 705.503 530.856 681.744 496.308C628.59 419.015 560.484 375.404 505.688 351.121C478.29 338.979 454.208 331.664 436.964 327.383C428.342 325.242 421.427 323.859 416.66 323.011C414.277 322.587 412.43 322.296 411.174 322.111C410.547 322.018 410.067 321.952 409.742 321.909C409.579 321.887 409.455 321.871 409.371 321.86L409.274 321.848L409.248 321.845L409.241 321.844C409.239 321.844 409.238 321.844 409 323.83L408.844 325.133C408.762 325.815 408.763 325.815 408.763 325.815L408.767 325.816L408.786 325.818L408.869 325.829C408.945 325.838 409.06 325.853 409.213 325.873C409.52 325.914 409.982 325.978 410.59 326.068C411.808 326.247 413.616 326.532 415.959 326.949C420.646 327.783 427.472 329.148 436.001 331.265C453.059 335.5 476.916 342.745 504.068 354.778C558.373 378.843 625.815 422.039 678.449 498.575C701.677 532.352 718.022 566.807 729.389 600H733.615Z" fill="white" fill-opacity="0.2"/>
<path d="M0 274.181C18.1984 275.519 39.6952 280.453 61.4085 292.989C89.4351 309.17 106.901 331.712 117.367 350.241C122.599 359.502 126.073 367.748 128.237 373.667C129.319 376.627 130.072 379.003 130.553 380.631C130.794 381.446 130.966 382.073 131.077 382.493C131.11 382.617 131.138 382.723 131.16 382.81L131.179 382.884L131.199 382.964L131.22 383.044L131.228 383.078L131.234 383.104L131.235 383.109C131.235 383.109 131.235 383.109 133.181 382.646C135.127 382.183 135.126 382.181 135.126 382.181L135.123 382.166L135.113 382.128C135.105 382.096 135.094 382.049 135.079 381.989C135.049 381.869 135.004 381.694 134.944 381.467C134.823 381.013 134.641 380.35 134.389 379.498C133.886 377.796 133.107 375.339 131.994 372.294C129.769 366.206 126.207 357.757 120.85 348.273C110.139 329.311 92.2187 306.158 63.4085 289.525C40.9643 276.567 18.7498 271.513 0 270.171V274.181Z" fill="white" fill-opacity="0.2"/>
<path d="M278 117.5C279.503 118.819 279.502 118.82 279.502 118.82L279.51 118.811L279.548 118.769C279.569 118.746 279.596 118.716 279.63 118.679C279.655 118.652 279.684 118.62 279.717 118.585C279.87 118.419 280.106 118.17 280.421 117.85C281.051 117.209 282.001 116.283 283.258 115.167C285.773 112.934 289.508 109.944 294.362 106.953C304.071 100.968 318.211 94.9999 336 94.9999C353.795 94.9999 368.318 100.972 378.416 106.97C383.463 109.967 387.389 112.962 390.047 115.201C391.376 116.32 392.386 117.249 393.058 117.892C393.394 118.214 393.646 118.464 393.81 118.631C393.893 118.714 393.954 118.777 393.992 118.817L394.034 118.86L394.042 118.869L394.043 118.87C394.043 118.87 394.042 118.869 395.5 117.5C396.958 116.131 396.957 116.13 396.957 116.13L396.95 116.122L396.933 116.104C396.919 116.089 396.899 116.069 396.874 116.042C396.823 115.99 396.75 115.915 396.655 115.819C396.465 115.627 396.187 115.35 395.823 115.002C395.095 114.306 394.023 113.32 392.625 112.142C389.829 109.788 385.725 106.658 380.459 103.53C369.932 97.278 354.706 90.9999 336 90.9999C317.289 90.9999 302.429 97.2815 292.263 103.547C287.18 106.681 283.259 109.816 280.602 112.177C279.272 113.357 278.258 114.345 277.57 115.044C277.226 115.394 276.963 115.672 276.784 115.865C276.694 115.962 276.625 116.037 276.577 116.09C276.553 116.117 276.535 116.138 276.521 116.153L276.505 116.171L276.5 116.177L276.498 116.179C276.498 116.179 276.497 116.181 278 117.5Z" fill="white" fill-opacity="0.2"/>
<path d="M1129.35 495.159C1129.29 495.403 1129.18 495.89 1128.95 496.864C1128.5 498.812 1128.49 498.812 1128.49 498.812L1128.49 498.811L1128.48 498.808L1128.44 498.799C1128.41 498.792 1128.37 498.781 1128.31 498.766C1128.19 498.737 1128.02 498.694 1127.8 498.637C1127.35 498.521 1126.71 498.346 1125.88 498.103C1124.23 497.618 1121.84 496.863 1118.88 495.776C1112.97 493.603 1104.78 490.101 1095.61 484.775C1077.25 474.122 1054.93 456.146 1039.11 426.875C1023.29 397.608 1020.16 368.498 1020.98 346.735C1021.39 335.851 1022.79 326.788 1024.08 320.437C1024.73 317.261 1025.35 314.76 1025.82 313.047C1026.05 312.19 1026.24 311.529 1026.38 311.079C1026.45 310.854 1026.5 310.682 1026.54 310.564L1026.56 310.475L1026.58 310.427L1026.59 310.39L1026.6 310.376C1026.6 310.376 1026.6 310.374 1028.5 310.999C1030.4 311.625 1030.4 311.624 1030.4 311.624L1030.39 311.629L1030.39 311.655L1030.37 311.699L1030.35 311.767C1030.32 311.868 1030.27 312.024 1030.21 312.232C1030.08 312.648 1029.9 313.273 1029.68 314.092C1029.23 315.732 1028.63 318.15 1028 321.237C1026.74 327.413 1025.38 336.255 1024.98 346.885C1024.18 368.151 1027.24 396.502 1042.63 424.973C1058.01 453.438 1079.73 470.932 1097.61 481.315C1106.56 486.507 1114.53 489.915 1120.26 492.022C1123.13 493.075 1125.43 493.802 1127.01 494.265C1127.79 494.496 1128.4 494.66 1128.81 494.766C1129.01 494.819 1129.16 494.858 1129.26 494.882C1129.31 494.895 1129.35 494.903 1129.37 494.909L1129.4 494.915L1129.4 494.916L1129.39 494.979L1129.35 495.159Z" fill="white" fill-opacity="0.2"/>
<path d="M789.093 269.307L790.496 270C791.119 270.307 791.525 270.508 791.79 270.639C791.966 270.726 792.08 270.783 792.154 270.819C792.289 270.887 792.289 270.887 792.289 270.887L792.288 270.889L792.273 270.918L792.235 270.993C792.203 271.057 792.156 271.148 792.094 271.264C791.971 271.498 791.789 271.834 791.548 272.26C791.064 273.114 790.339 274.331 789.361 275.815C787.405 278.783 784.43 282.826 780.33 287.169C772.132 295.852 759.405 305.766 741.331 310.608C723.263 315.45 706.931 313.327 695.144 310.012C689.248 308.354 684.474 306.393 681.164 304.842C679.509 304.066 678.218 303.392 677.334 302.908C676.893 302.665 676.552 302.47 676.319 302.334C676.275 302.308 676.234 302.284 676.197 302.262C676.138 302.227 676.089 302.198 676.05 302.175C676.019 302.156 675.995 302.141 675.977 302.13L675.956 302.117L675.947 302.112C675.947 302.112 675.946 302.111 677 300.411C678.054 298.712 678.053 298.711 678.053 298.711L678.054 298.712L678.064 298.718L678.116 298.749C678.163 298.778 678.238 298.822 678.339 298.882C678.542 299 678.849 299.176 679.257 299.4C680.073 299.847 681.289 300.483 682.862 301.22C686.009 302.695 690.577 304.572 696.227 306.161C707.533 309.341 723.108 311.35 740.296 306.745C757.479 302.141 769.592 292.716 777.422 284.423C781.336 280.277 784.17 276.422 786.021 273.614C786.946 272.211 787.624 271.07 788.067 270.288C788.177 270.096 788.272 269.925 788.352 269.777C788.381 269.725 788.407 269.677 788.432 269.631C788.455 269.589 788.476 269.55 788.495 269.513L788.521 269.465L788.557 269.397C788.61 269.297 788.648 269.222 788.672 269.175L788.698 269.124L788.703 269.114C788.703 269.114 788.703 269.114 789.093 269.307Z" fill="white" fill-opacity="0.2"/>
<path d="M1374.25 453.967C1376.21 454.358 1376.21 454.359 1376.21 454.359L1376.21 454.348L1376.23 454.292C1376.24 454.24 1376.25 454.158 1376.28 454.048C1376.3 453.947 1376.33 453.821 1376.37 453.673C1376.4 453.546 1376.43 453.402 1376.47 453.242C1376.49 453.184 1376.51 453.123 1376.52 453.06C1376.75 452.19 1377.11 450.913 1377.64 449.318C1378.7 446.126 1380.44 441.67 1383.15 436.652C1388.56 426.615 1397.82 414.376 1413.23 405.482C1428.64 396.584 1444.2 394.494 1455.95 394.639C1461.82 394.712 1466.72 395.343 1470.14 395.953C1471.85 396.258 1473.19 396.557 1474.09 396.778C1474.54 396.888 1474.88 396.979 1475.11 397.041C1475.17 397.056 1475.21 397.07 1475.25 397.081L1475.36 397.111L1475.42 397.128L1475.43 397.132L1475.43 397.132L1475.44 397.089L1476.01 395.217C1476.59 393.302 1476.58 393.302 1476.58 393.302L1476.57 393.299L1476.55 393.292L1476.47 393.268L1476.34 393.231C1476.29 393.217 1476.23 393.201 1476.17 393.184C1476.02 393.142 1475.82 393.091 1475.59 393.031C1475.43 392.989 1475.24 392.942 1475.04 392.892C1474.06 392.653 1472.64 392.336 1470.84 392.015C1467.24 391.373 1462.12 390.715 1456 390.64C1443.75 390.488 1427.43 392.665 1411.23 402.017C1395.03 411.373 1385.3 424.243 1379.63 434.752C1376.79 440.008 1374.96 444.683 1373.84 448.056C1373.28 449.743 1372.9 451.106 1372.65 452.056C1372.59 452.267 1372.55 452.457 1372.51 452.627C1372.45 452.838 1372.41 453.016 1372.38 453.159C1372.35 453.288 1372.33 453.388 1372.31 453.458L1372.3 453.54L1372.29 453.564L1372.29 453.572L1372.29 453.574C1372.29 453.574 1372.29 453.575 1372.6 453.638L1374.25 453.967Z" fill="white" fill-opacity="0.2"/>
</g>
<defs>
<clipPath id="clip0_428_75">
<rect width="1500" height="600" fill="white"/>
</clipPath>
</defs>
</svg>
