<svg width="1500" height="600" viewBox="0 0 1500 600" fill="none" xmlns="http://www.w3.org/2000/svg">
<g clip-path="url(#clip0_428_55)">
<rect width="1500" height="600" fill="#222222"/>
<rect width="1500" height="600" fill="#222222"/>
<path fill-rule="evenodd" clip-rule="evenodd" d="M854 480.886L944.437 464L961.474 555.244L871.037 572.13L854 480.886ZM856.333 482.485L942.838 466.333L959.141 553.645L872.636 569.797L856.333 482.485Z" fill="white" fill-opacity="0.38"/>
<path fill-rule="evenodd" clip-rule="evenodd" d="M596 91.8862L686.437 75.0001L703.474 166.244L613.037 183.13L596 91.8862ZM598.333 93.4851L684.838 77.3332L701.141 164.645L614.636 180.797L598.333 93.4851Z" fill="white" fill-opacity="0.38"/>
<path fill-rule="evenodd" clip-rule="evenodd" d="M1321 208V300H1155V208H1321ZM1157 210H1319V298H1157V210Z" fill="white" fill-opacity="0.38"/>
<path fill-rule="evenodd" clip-rule="evenodd" d="M1234.88 432.863L1186.06 510.842L1116 466.979L1164.82 389L1234.88 432.863ZM1232.13 433.497L1185.43 508.086L1118.76 466.345L1165.45 391.756L1232.13 433.497Z" fill="white" fill-opacity="0.38"/>
<path fill-rule="evenodd" clip-rule="evenodd" d="M568.253 254L642.049 365.344L535.796 435.766L462 324.422L568.253 254ZM567.69 256.772L639.277 364.782L536.358 432.994L464.772 324.984L567.69 256.772Z" fill="white" fill-opacity="0.38"/>
<path d="M920.694 161.11C920.751 161.16 920.751 161.16 920.751 161.16L920.753 161.158L920.763 161.147L920.805 161.099C920.844 161.056 920.904 160.991 920.984 160.905C921.144 160.732 921.385 160.476 921.708 160.149C922.353 159.493 923.319 158.552 924.594 157.42C927.144 155.154 930.926 152.128 935.837 149.101C945.66 143.047 959.98 137 978 137C996.022 137 1010.72 143.048 1020.93 149.11C1026.03 152.14 1030 155.169 1032.69 157.437C1034.04 158.57 1035.06 159.513 1035.75 160.17C1035.94 160.349 1036.1 160.506 1036.23 160.64C1036.35 160.753 1036.44 160.849 1036.52 160.928C1036.61 161.014 1036.67 161.08 1036.71 161.123L1036.76 161.171L1036.77 161.182L1036.77 161.184C1036.77 161.184 1036.77 161.184 1037.5 160.5C1037.84 160.182 1038.02 160.012 1038.12 159.92C1038.23 159.815 1038.23 159.815 1038.23 159.815L1038.23 159.813L1038.22 159.809L1038.21 159.793L1038.15 159.736C1038.11 159.687 1038.04 159.615 1037.94 159.522C1037.76 159.336 1037.49 159.066 1037.13 158.725C1036.42 158.041 1035.36 157.07 1033.98 155.907C1031.22 153.581 1027.16 150.485 1021.95 147.39C1011.53 141.202 996.478 135 978 135C959.519 135 944.84 141.203 934.788 147.399C929.762 150.497 925.887 153.596 923.266 155.924C921.954 157.089 920.956 158.061 920.282 158.746C919.945 159.088 919.69 159.359 919.517 159.545C919.431 159.638 919.365 159.71 919.32 159.76L919.268 159.818L919.254 159.833L919.25 159.838L919.249 159.84C919.249 159.84 919.249 159.84 919.382 159.957C919.486 160.049 919.671 160.211 920 160.5C920.433 160.88 920.616 161.041 920.694 161.11Z" fill="white" fill-opacity="0.38"/>
<path d="M748.995 300.063C748.973 300.064 748.973 300.065 748.973 300.065L748.974 300.07L748.975 300.091L748.98 300.178C748.984 300.256 748.991 300.374 748.999 300.531C749.015 300.845 749.036 301.315 749.059 301.935C749.104 303.174 749.154 305.014 749.17 307.404C749.203 312.184 749.102 319.168 748.571 327.963C747.507 345.555 744.717 370.39 737.811 399.344C723.997 457.252 693.723 531.611 627.879 597.454C627.025 598.309 626.169 599.157 625.311 600H628.158C628.537 599.624 628.915 599.247 629.294 598.868C695.462 532.7 725.88 457.977 739.756 399.808C746.694 370.723 749.498 345.771 750.567 328.084C751.102 319.24 751.203 312.212 751.17 307.39C751.153 304.979 751.104 303.12 751.058 301.862C751.035 301.232 751.013 300.753 750.996 300.43C750.988 300.269 750.981 300.146 750.977 300.064L750.971 299.97L750.97 299.945L750.969 299.939C750.969 299.939 750.969 299.936 749.971 300C749.25 300.046 749.05 300.059 748.995 300.063Z" fill="white" fill-opacity="0.38"/>
<path d="M763.821 0C760.718 7.20895 759 15.1538 759 23.5C759 56.3609 785.639 83 818.5 83C851.361 83 878 56.3609 878 23.5C878 15.1538 876.281 7.20895 873.179 0H870.994C874.211 7.17447 876 15.1283 876 23.5C876 55.2564 850.256 81 818.5 81C786.744 81 761 55.2564 761 23.5C761 15.1283 762.789 7.17447 766.006 0H763.821Z" fill="white" fill-opacity="0.38"/>
<path d="M1500 271.444C1437.26 276.77 1388 329.382 1388 393.5C1388 457.618 1437.26 510.231 1500 515.557V513.549C1438.37 508.229 1390 456.513 1390 393.5C1390 330.488 1438.37 278.772 1500 273.451V271.444Z" fill="white" fill-opacity="0.38"/>
<path d="M85.9999 271L86.457 271.404C86.7494 271.662 86.7495 271.662 86.7495 271.662L86.7509 271.661L86.7863 271.621C86.8124 271.592 86.8521 271.548 86.9055 271.489C87.0124 271.371 87.1738 271.195 87.3894 270.964C87.8204 270.502 88.4678 269.822 89.3273 268.954C91.0464 267.219 93.6137 264.734 96.9958 261.75C103.76 255.782 113.781 247.818 126.791 239.853C152.81 223.923 190.763 208 238.528 208C286.295 208 325.238 223.925 352.251 239.862C365.756 247.829 376.272 255.796 383.408 261.767C386.975 264.753 389.697 267.238 391.525 268.975C392.438 269.843 393.128 270.524 393.588 270.987C393.818 271.218 393.991 271.395 394.105 271.513C394.163 271.572 394.205 271.616 394.233 271.645L394.264 271.678L394.271 271.685L394.273 271.687C394.273 271.687 394.273 271.687 395 271C395.727 270.313 395.726 270.312 395.726 270.312L395.723 270.309L395.714 270.299L395.678 270.262C395.647 270.23 395.602 270.183 395.542 270.121C395.421 269.996 395.242 269.814 395.006 269.576C394.533 269.101 393.83 268.407 392.902 267.525C391.047 265.762 388.294 263.248 384.691 260.233C377.486 254.205 366.882 246.171 353.267 238.139C326.04 222.076 286.747 206 238.528 206C190.305 206 151.994 222.077 125.746 238.147C112.622 246.183 102.509 254.219 95.6726 260.25C92.2542 263.266 89.6544 265.782 87.9064 267.546C87.0325 268.429 86.3714 269.123 85.9273 269.599C85.7053 269.837 85.5376 270.02 85.4246 270.145C85.3681 270.207 85.3253 270.254 85.2963 270.287L85.2631 270.324L85.2517 270.337C85.2517 270.337 85.2505 270.338 85.9999 271Z" fill="white" fill-opacity="0.38"/>
<path fill-rule="evenodd" clip-rule="evenodd" d="M782.927 221.005L829.254 208.591L799.884 191.634L782.927 221.005ZM824.073 207.909L787.073 217.823L800.616 194.366L824.073 207.909Z" fill="white" fill-opacity="0.38"/>
<path fill-rule="evenodd" clip-rule="evenodd" d="M337.348 131.883L380.689 53.37L319.762 70.9566L337.348 131.883ZM376.604 56.6306L337.931 126.69L322.238 72.3235L376.604 56.6306Z" fill="white" fill-opacity="0.38"/>
<path fill-rule="evenodd" clip-rule="evenodd" d="M350.586 492L414 555.414V492H350.586ZM412 550.586L355.414 494H412V550.586Z" fill="white" fill-opacity="0.38"/>
<path fill-rule="evenodd" clip-rule="evenodd" d="M1407.41 208.553L1448.95 232.534L1440.17 199.775L1407.41 208.553ZM1445.76 228.388L1412.59 209.235L1438.75 202.225L1445.76 228.388Z" fill="white" fill-opacity="0.38"/>
<path fill-rule="evenodd" clip-rule="evenodd" d="M1021 322.5C1021 355.361 994.361 382 961.5 382C928.639 382 902 355.361 902 322.5C902 289.639 928.639 263 961.5 263C994.361 263 1021 289.639 1021 322.5ZM1019 322.5C1019 354.256 993.256 380 961.5 380C929.744 380 904 354.256 904 322.5C904 290.744 929.744 265 961.5 265C993.256 265 1019 290.744 1019 322.5Z" fill="white" fill-opacity="0.38"/>
<path fill-rule="evenodd" clip-rule="evenodd" d="M274 359.5C274 392.361 247.361 419 214.5 419C181.639 419 155 392.361 155 359.5C155 326.639 181.639 300 214.5 300C247.361 300 274 326.639 274 359.5ZM272 359.5C272 391.256 246.256 417 214.5 417C182.744 417 157 391.256 157 359.5C157 327.744 182.744 302 214.5 302C246.256 302 272 327.744 272 359.5Z" fill="white" fill-opacity="0.38"/>
<path d="M1499.07 82.4135C1474.03 94.4581 1446.55 104.94 1416.5 112.991C1312.37 140.894 1218.12 128.69 1149.89 109.501C1115.77 99.9065 1088.17 88.5684 1069.1 79.6313C1059.57 75.1629 1052.17 71.2952 1047.15 68.5466C1044.65 67.1724 1042.74 66.0779 1041.45 65.3281C1040.81 64.9532 1040.33 64.6645 1040.01 64.47C1039.85 64.3728 1039.73 64.2991 1039.64 64.25L1039.56 64.195L1039.53 64.1815L1039.53 64.1783C1039.53 64.1783 1039.53 64.1777 1039.39 64.3925L1039 65.0273C1038.47 65.8771 1038.48 65.8788 1038.48 65.8788L1038.48 65.8827L1038.51 65.8978L1038.6 65.9562C1038.69 66.0075 1038.81 66.0834 1038.97 66.1828C1039.3 66.3817 1039.8 66.6749 1040.44 67.0543C1041.74 67.8131 1043.67 68.9168 1046.19 70.3004C1051.24 73.0675 1058.68 76.9545 1068.25 81.4423C1087.4 90.4174 1115.11 101.797 1149.34 111.426C1217.82 130.682 1312.45 142.943 1417.02 114.923C1447.19 106.839 1474.79 96.312 1499.93 84.2158L1499.07 82.4135Z" fill="white" fill-opacity="0.38"/>
</g>
<defs>
<clipPath id="clip0_428_55">
<rect width="1500" height="600" fill="white"/>
</clipPath>
</defs>
</svg>
