<svg width="63" height="52" viewBox="0 0 63 52" fill="none" xmlns="http://www.w3.org/2000/svg">
<g filter="url(#filter0_d_280_317)">
<path d="M31.446 40.372L31.4484 40.3721L31.4485 40.3721L31.4486 40.3721L31.4488 40.3721L31.4489 40.3721L31.5142 40.375L31.5796 40.3721L31.5797 40.3721L31.5798 40.3721L31.5799 40.3721L31.58 40.3721L31.5825 40.372L31.5958 40.3715L31.6508 40.3695C31.6989 40.3679 31.7663 40.366 31.8426 40.3647C32.0073 40.362 32.1686 40.3631 32.2686 40.37L32.2706 40.3702L32.403 40.3791L32.404 40.3792C33.0626 40.4231 33.1776 40.4555 33.2896 40.5204L33.3066 40.5302C33.5619 40.678 33.9533 40.9045 34.4989 41.0768C35.0567 41.2528 35.7144 41.3554 36.5454 41.3554C38.4191 41.3554 40.3018 40.3962 41.3349 38.8201C41.5505 39.3349 41.8831 39.8256 42.3964 40.2042C43.3073 40.876 44.4355 40.9381 45.5454 40.7226C49.2823 39.997 50.5833 36.9947 51.6508 34.5312C51.6796 34.4646 51.7083 34.3985 51.7368 34.3328C52.0302 33.6573 52.3146 33.0034 52.6371 32.3581C53.6353 30.3607 54.2071 28.6622 54.4252 26.8982C54.6416 25.1478 54.4972 23.4252 54.1876 21.4182C53.9191 19.6781 53.5881 18.1835 53.0021 16.7601C52.4105 15.3231 51.5862 14.0229 50.3977 12.6246C48.5708 10.4752 47.1229 8.94302 43.9992 8.0371C43.241 7.81718 42.2027 7.67541 41.2579 7.69225C40.7838 7.70071 40.2658 7.74984 39.7865 7.88351C39.6655 7.91725 39.5284 7.96148 39.3842 8.02069C37.3186 7.10367 34.7102 6.50002 31.5142 6.5C28.3183 6.50002 25.7098 7.10367 23.6443 8.02069C23.5001 7.96148 23.3629 7.91725 23.2419 7.88351C22.7627 7.74984 22.2446 7.70071 21.7705 7.69225C20.8258 7.67541 19.7875 7.81718 19.0292 8.0371C15.9056 8.94302 14.4576 10.4752 12.6308 12.6246C11.4423 14.0229 10.6179 15.3231 10.0263 16.7601C9.44039 18.1835 9.10936 19.6781 8.84089 21.4182C8.53123 23.4252 8.38689 25.1478 8.60326 26.8982C8.8213 28.6622 9.39312 30.3607 10.3914 32.3581C10.7138 33.0034 10.9982 33.6573 11.2916 34.3328C11.3202 34.3985 11.3488 34.4646 11.3777 34.5312C12.4451 36.9947 13.7461 39.997 17.4831 40.7226C18.5929 40.9381 19.7211 40.876 20.632 40.2042C21.1453 39.8256 21.478 39.3349 21.6935 38.8201C22.7266 40.3962 24.6093 41.3554 26.483 41.3554C27.314 41.3554 27.9717 41.2528 28.5295 41.0768C29.0752 40.9045 29.4666 40.678 29.7219 40.5302L29.7388 40.5204C29.8508 40.4555 29.9658 40.4231 30.6245 40.3792L30.6255 40.3791L30.7579 40.3702L30.7599 40.37C30.8598 40.3631 31.0212 40.362 31.1859 40.3647C31.2622 40.366 31.3296 40.3679 31.3777 40.3695L31.4327 40.3715L31.446 40.372Z" stroke="white" stroke-width="3"/>
</g>
<path d="M34.0263 34.9218C33.649 35.5719 32.9337 36.6698 31.5143 36.6698C30.0948 36.6698 29.3795 35.5719 29.0021 34.9218C28.5009 34.0584 28.3879 33.1031 28.9796 32.7258C29.6367 32.3069 30.0947 32.0757 31.5142 32.0757C32.9337 32.0757 33.3918 32.3069 34.0489 32.7258C34.6406 33.1031 34.5275 34.0584 34.0263 34.9218Z" fill="#393939"/>
<path d="M43.7328 13.851C44.6762 16.1265 44.6936 19.5094 43.7985 22.9525C43.4899 24.1394 43.1315 24.9794 42.7403 25.9113C42.7403 25.9113 41.6857 28.7335 41.5765 29.1286C41.4673 29.5236 41.3728 30.0026 41.3238 30.4091C39.3324 30.0744 34.0039 24.9028 33.6445 22.9525C33.4752 22.0336 33.5965 19.583 33.7058 17.2217C33.8284 14.5713 34.0263 12.2474 33.6524 11.9007C33.2786 11.5539 32.8371 11.4833 31.5142 11.4902C30.1914 11.4833 29.7498 11.5539 29.376 11.9007C29.0021 12.2474 29.2 14.5713 29.3226 17.2217C29.4319 19.583 29.5453 22.0336 29.376 22.9525C29.0166 24.9028 23.696 30.0744 21.7046 30.4091C21.6556 30.0026 21.5611 29.5236 21.4519 29.1286C21.3427 28.7335 20.2881 25.9113 20.2881 25.9113L20.2548 25.832C19.8766 24.9314 19.5297 24.1056 19.23 22.9525C18.3348 19.5094 18.3522 16.1265 19.2956 13.851C20.239 11.5754 23.9674 8.00004 31.5142 8C39.061 8.00004 42.7894 11.5754 43.7328 13.851Z" fill="#D68F52"/>
<path d="M40.1391 37.9052C39.4164 39.0857 37.983 39.8554 36.5455 39.8554C35.1356 39.8554 34.5372 39.5092 34.0409 39.222C33.5446 38.9349 33.0363 38.9193 32.3716 38.8736C32.0376 38.8506 31.5143 38.8736 31.5143 38.8736V36.6698C32.9338 36.6698 33.649 35.5719 34.0264 34.9218C34.5276 34.0584 34.6407 33.1031 34.0489 32.7258C33.3919 32.307 32.9338 32.0757 31.5143 32.0757C30.0948 32.0757 29.6367 32.307 28.9797 32.7258C28.3879 33.1031 28.501 34.0584 29.0022 34.9218C29.3796 35.5719 30.0948 36.6698 31.5143 36.6698V38.8736C31.5143 38.8736 30.991 38.8506 30.657 38.8736C29.9923 38.9193 29.484 38.9349 28.9877 39.222C28.4914 39.5092 27.893 39.8554 26.4831 39.8554C25.0456 39.8554 23.6122 39.0857 22.8894 37.9052C22.2444 36.8517 22.0779 35.2071 21.9623 33.506C21.8467 31.8049 21.8053 31.6185 21.7047 30.4091C23.6961 30.0745 29.0167 24.9029 29.376 22.9525C29.5454 22.0336 29.432 19.583 29.3227 17.2217C29.2001 14.5713 29.0022 12.2474 29.376 11.9007C29.7499 11.5539 30.1915 11.4833 31.5143 11.4902C32.8372 11.4833 33.2787 11.5539 33.6525 11.9007C34.0264 12.2474 33.8285 14.5713 33.7059 17.2217C33.5966 19.583 33.4753 22.0336 33.6446 22.9525C34.004 24.9029 39.3325 30.0745 41.3239 30.4091C41.2233 31.6185 41.1818 31.8049 41.0663 33.506C40.9507 35.2071 40.7842 36.8517 40.1391 37.9052Z" fill="#F5EEDA"/>
<path d="M43.4492 24.473C42.4371 18.5932 40.6732 13.952 39.4403 10.3829C38.9371 8.92592 42.101 9.04836 43.5815 9.47772C46.2718 10.258 47.4818 11.5099 49.2548 13.596C51.4701 16.2024 52.1836 18.2662 52.7052 21.6469C53.3089 25.5602 53.1884 27.8996 51.2954 31.6876C49.6062 35.0677 48.9689 38.5298 45.2595 39.2501C39.5521 40.3583 44.4354 30.2027 43.4492 24.473Z" fill="#8B5743"/>
<path d="M19.5793 24.473C20.5914 18.5932 22.3553 13.952 23.5882 10.3829C24.0915 8.92592 20.9275 9.04836 19.447 9.47772C16.7567 10.258 15.5468 11.5099 13.7737 13.596C11.5585 16.2024 10.8449 18.2662 10.3233 21.6469C9.71959 25.5602 9.84008 27.8996 11.7331 31.6876C13.4223 35.0677 14.0596 38.5298 17.769 39.2501C23.4764 40.3583 18.5931 30.2027 19.5793 24.473Z" fill="#8B5743"/>
<circle cx="25.3423" cy="24.1268" r="2.19006" fill="#393939"/>
<circle cx="37.6861" cy="24.1268" r="2.19006" fill="#393939"/>
<path d="M33.0142 38.4617C33.0142 39.2901 32.3426 39.9617 31.5142 39.9617C30.6857 39.9617 30.0142 39.2901 30.0142 38.4617H33.0142ZM33.0142 35.8734V38.4617H30.0142V35.8734H33.0142Z" fill="#393939"/>
<defs>
<filter id="filter0_d_280_317" x="0.822598" y="0.881773" width="61.3832" height="50.21" filterUnits="userSpaceOnUse" color-interpolation-filters="sRGB">
<feFlood flood-opacity="0" result="BackgroundImageFix"/>
<feColorMatrix in="SourceAlpha" type="matrix" values="0 0 0 0 0 0 0 0 0 0 0 0 0 0 0 0 0 0 127 0" result="hardAlpha"/>
<feOffset dy="2.05911"/>
<feGaussianBlur stdDeviation="3.08867"/>
<feColorMatrix type="matrix" values="0 0 0 0 0 0 0 0 0 0 0 0 0 0 0 0 0 0 0.35 0"/>
<feBlend mode="normal" in2="BackgroundImageFix" result="effect1_dropShadow_280_317"/>
<feBlend mode="normal" in="SourceGraphic" in2="effect1_dropShadow_280_317" result="shape"/>
</filter>
</defs>
</svg>
